<?xml version="1.0" encoding="UTF-8" standalone="no"?>
<!-- Created with Inkscape (http://www.inkscape.org/) -->

<svg
   width="149.76852mm"
   height="121.08445mm"
   viewBox="0 0 149.76852 121.08445"
   version="1.1"
   id="svg1"
   xmlns="http://www.w3.org/2000/svg"
   xmlns:svg="http://www.w3.org/2000/svg">
  <defs
     id="defs1" />
  <g
     id="layer1"
     transform="translate(-25.789982,-78.789547)">
    <path
       style="fill:#585f50;stroke:none"
       d="m 111.60193,166.17925 -0.0847,0.0847 c -1.91863,-0.82655 -3.74539,-1.86989 -5.67561,-2.68669 -3.89662,-1.64889 -7.99658,-2.98998 -12.113638,-3.96284 -16.023532,-3.78636 -33.156493,-2.68886 -47.946269,4.89244 -4.843843,2.48297 -9.478782,5.46675 -13.638427,8.9826 -1.46298,1.23656 -2.881293,2.51735 -4.235536,3.8716 -0.625765,0.62576 -1.326287,1.6474 -2.117768,2.03306 v 0.59297 c 0.714445,0.34217 1.305208,1.2205 1.863636,1.77893 1.166738,1.16673 2.390176,2.25649 3.650144,3.32156 3.337883,2.82155 7.120129,5.2444 11.004811,7.23695 6.644384,3.40806 13.938807,5.73286 21.347102,6.69797 2.314885,0.30156 4.624374,0.37665 6.94628,0.54035 2.636016,0.18584 5.365083,0.43348 8.044183,0.24198 0.378443,-0.0271 0.720021,-0.21487 1.104575,-0.24198 8.835265,-0.62289 17.331243,-2.10569 25.582637,-5.46737 5.6938,-2.31969 11.08646,-5.5554 15.7562,-9.55944 1.5855,-1.35949 2.88714,-2.96263 4.34475,-4.44005 2.79671,-2.83474 5.50172,-5.59936 7.86038,-8.8341 8.07074,-11.06845 12.76916,-24.66901 13.72393,-38.28925 0.3433,-4.89743 0.49081,-9.85873 -0.20119,-14.73967 -1.28581,-9.06938 -4.96618,-17.64565 -9.72507,-25.413216 -2.1119,-3.447112 -4.48834,-6.720615 -7.07314,-9.826444 -1.13406,-1.362631 -2.30334,-2.959074 -3.66577,-4.09965 -0.48918,-0.409521 -1.00665,0.501078 -1.2855,0.795932 -1.10065,1.163841 -2.1334,2.389572 -3.13096,3.642561 -4.15736,5.22188 -7.7365,10.869269 -10.6859,16.857437 -7.02081,14.25432 -10.34928,30.58508 -6.66013,46.25205 1.08581,4.6112 2.4221,9.16619 4.22286,13.55372 0.85433,2.08157 2.01166,4.07894 2.78813,6.18388 m 0.59298,1.35537 c 0.10209,-0.33242 0.34526,-0.5756 0.67769,-0.67768 -6.8e-4,-1.00728 -0.45501,-1.73921 -0.87783,-2.62603 -0.61079,-1.28105 -1.22266,-2.58112 -1.75474,-3.8967 -1.88613,-4.66349 -3.50652,-9.47312 -4.5436,-14.40082 -1.05282,-5.0025 -1.77005,-10.20922 -1.5457,-15.33264 0.51527,-11.76747 4.6225,-23.00902 9.97062,-33.376028 2.29735,-4.453259 5.19714,-8.657308 8.24891,-12.621898 0.80286,-1.043012 1.64074,-2.06804 2.5172,-3.049587 0.28593,-0.320209 0.62675,-0.896194 1.04464,-1.048491 0.43837,-0.159763 0.8175,0.435445 1.06274,0.706319 0.77943,0.860902 1.51779,1.740168 2.26405,2.629362 3.20944,3.824164 6.16816,8.037478 8.51363,12.452477 3.18679,5.998656 5.85079,12.135356 7.28891,18.805776 1.20145,5.5727 1.24332,11.20136 0.85593,16.85744 -0.51098,7.46033 -1.97418,15.03707 -4.70596,22.02479 -2.52252,6.45245 -5.76259,12.60739 -9.97658,18.12809 -2.05669,2.69446 -4.37345,5.05965 -6.75679,7.45455 -2.37135,2.38283 -4.63139,4.67092 -7.3699,6.65613 -11.30115,8.19249 -25.050739,11.63574 -38.79751,12.23769 -6.358076,0.27841 -12.739678,-0.12697 -18.975202,-1.41923 -9.070794,-1.87984 -17.45536,-5.65279 -24.989663,-11.03658 -1.817184,-1.29851 -3.532991,-2.74947 -5.174936,-4.26096 -0.504752,-0.46465 -1.582694,-1.23048 -1.747747,-1.92292 -0.109172,-0.45801 0.459887,-0.90561 0.738866,-1.18595 0.926198,-0.93074 1.860712,-1.86484 2.880099,-2.69414 4.121337,-3.35283 8.205713,-6.50529 12.87603,-9.0828 15.121265,-8.34532 32.507714,-10.09622 49.21693,-6.16174 4.39169,1.03411 8.724333,2.49324 12.876033,4.25783 1.05319,0.44764 2.11832,0.911 3.13429,1.43891 0.99055,0.51469 1.90423,1.14408 3.04959,1.14483 m 12.6219,-60.22932 c -0.26283,0.62077 -0.82039,1.08036 -1.22831,1.6095 -0.92657,1.20193 -1.83623,2.41524 -2.72918,3.64256 -2.29979,3.16098 -4.36291,6.60736 -5.98602,10.16529 -2.22779,4.88337 -3.55989,10.13901 -4.40973,15.41735 -1.23008,7.63998 -1.61453,15.563 1.20177,22.95661 1.24606,3.27128 3.01733,6.29776 5.03663,9.14876 0.95902,1.35401 2.14816,2.5845 3.03219,3.9814 -1.38329,-0.74004 -2.65382,-1.80886 -3.9814,-2.65721 -2.35482,-1.50477 -4.9285,-2.85633 -7.53925,-3.85584 -5.23926,-2.00583 -10.709557,-2.83684 -16.264396,-3.32137 -2.292132,-0.19993 -4.855371,-0.54648 -7.192899,-0.23491 -5.552864,0.74015 -11.441335,2.25347 -16.526171,4.65792 -3.494542,1.65243 -6.822232,3.79767 -9.826444,6.22563 -1.056707,0.85403 -2.078719,1.73717 -3.085535,2.64912 -0.499128,0.45209 -0.959823,1.07896 -1.573554,1.36517 0.03474,1.04869 1.794482,2.18388 2.541321,2.8314 2.693069,2.33496 5.693232,4.40688 8.894626,5.98741 5.371112,2.65171 11.275724,3.9434 17.196277,4.57954 3.714356,0.3991 7.424054,0.91508 11.181815,0.65605 5.084939,-0.3505 10.55988,-1.80712 15.16322,-3.98388 4.13098,-1.95341 7.87452,-4.65089 11.35124,-7.59064 7.73569,-6.54092 13.41407,-14.45977 17.04124,-23.91169 1.03854,-2.70631 2.1908,-5.68656 2.66877,-8.55578 0.16571,-0.99476 0.0397,-1.97129 0.0279,-2.96488 -0.0244,-2.0523 -0.0455,-4.0566 -0.24008,-6.09917 -0.4776,-5.01489 -1.07193,-9.99795 -2.61892,-14.82438 -1.50074,-4.6821 -4.03993,-9.03596 -7.08851,-12.87479 -0.88199,-1.11063 -1.84674,-2.21204 -2.84448,-3.22025 -0.53504,-0.54065 -1.37094,-1.08597 -1.69388,-1.77892 h -0.50826 m 0.42996,3.63687 c 0.36817,-0.0568 0.69625,0.44746 0.90155,0.68337 0.67518,0.77585 1.34636,1.5497 1.96332,2.37191 2.62112,3.49302 4.76904,7.16461 6.2935,11.26652 1.96906,5.29826 2.79068,11.23514 3.03689,16.85744 0.0792,1.80877 0.45518,3.69205 0.23518,5.50619 -0.22876,1.88651 -1.04693,3.87417 -1.63466,5.67562 -1.31848,4.04126 -2.8218,8.13126 -5.04938,11.77479 -1.55732,2.54724 -3.23299,4.92752 -5.06532,7.28513 -0.47724,0.61404 -0.98334,1.20881 -1.51995,1.77134 -0.18556,0.19451 -0.41272,0.54954 -0.69874,0.59357 -0.34933,0.0538 -0.65686,-0.37425 -0.85763,-0.60037 -0.65593,-0.73876 -1.28986,-1.50891 -1.91455,-2.27405 -2.6359,-3.22855 -4.85479,-6.79011 -6.56548,-10.5876 -3.59858,-7.9883 -2.82559,-17.08424 -1.09954,-25.41322 1.05927,-5.11143 2.62417,-10.24745 5.19128,-14.82437 1.49062,-2.65763 3.06924,-5.23365 4.85041,-7.70868 0.37852,-0.52598 1.26132,-2.27393 1.93312,-2.37759 m -3.056,85.47881 c 0.44233,-0.15096 0.65292,-0.72389 0.89195,-1.10124 0.67901,-1.07197 1.32569,-2.16238 2.03005,-3.21901 2.51309,-3.76997 5.17937,-7.50663 8.18497,-10.90349 3.02227,-3.4157 6.155,-6.6982 9.65474,-9.63245 5.17084,-4.33532 11.03411,-7.86729 17.01928,-10.95455 3.73306,-1.92558 7.57692,-3.55643 11.43594,-5.2001 0.9147,-0.3896 1.85416,-0.75456 2.79546,-1.07307 0.42894,-0.14514 1.11553,-0.38717 1.35537,-0.77972 -1.26372,0 -2.63274,0.39777 -3.89669,0.62566 -2.33143,0.42035 -4.6428,0.85658 -6.94628,1.41603 -9.37215,2.2762 -18.25039,6.07895 -25.49793,12.62765 -1.39556,1.261 -2.60662,2.80048 -3.83591,4.22116 -2.37216,2.74147 -4.62464,5.55442 -6.53475,8.64049 -2.0276,3.27588 -3.57128,6.78302 -5.03492,10.33471 -0.60965,1.47936 -1.6077,3.38202 -1.62128,4.99793 m 42.6095,-39.55991 v 0.0847 h -0.42356 l 0.42356,-0.0847 m -0.67769,0.33885 c -1.15264,0.86347 -2.77494,1.37546 -4.06611,2.03018 -2.93287,1.48717 -5.86896,3.07976 -8.6405,4.85171 -6.80338,4.34966 -12.74688,9.47609 -18.1424,15.48174 -1.94254,2.16219 -3.98064,4.42607 -5.5766,6.86157 h -0.16942 l -0.0847,-0.0847 c 0.22393,-1.03042 0.92297,-2.05494 1.43995,-2.96487 1.22851,-2.16229 2.53351,-4.22025 4.06507,-6.18388 2.22259,-2.84964 4.50567,-5.86085 7.20159,-8.28721 3.8211,-3.43905 8.46873,-6.24185 13.13016,-8.36845 2.53539,-1.15668 5.2594,-2.1215 7.96281,-2.79945 0.88827,-0.22275 1.96411,-0.80729 2.88016,-0.53662 m -77.59502,9.173 c 2.488414,-0.3056 5.319502,0.24773 7.793387,0.54454 6.709273,0.80498 13.104073,2.58309 18.975203,6.01584 1.87644,1.09712 3.67761,2.31606 5.42142,3.6121 0.37701,0.28021 1.60676,0.96914 1.58911,1.48694 -0.0156,0.45861 -0.93284,0.99367 -1.2502,1.2559 -1.27543,1.05383 -2.55939,2.08884 -3.8967,3.06397 -6.06931,4.42552 -12.79698,7.19585 -20.245858,8.19929 -3.653481,0.49215 -7.114408,0.14317 -10.758262,-0.21531 -6.629539,-0.65221 -13.257161,-2.11093 -19.144623,-5.32534 -2.074244,-1.13249 -3.931159,-2.48923 -5.84504,-3.86238 -0.480619,-0.34483 -1.842099,-1.12431 -1.908869,-1.76068 -0.05281,-0.50338 0.97642,-1.11956 1.315894,-1.3978 1.521683,-1.24722 3.099051,-2.44823 4.7438,-3.52843 7.02095,-4.61109 14.90597,-7.06873 23.210738,-8.08864 m 40.91528,20.0522 -0.0847,0.42355 h -0.0847 v -0.42355 h 0.16942 m -0.45179,0.81886 -0.0282,0.0565 z"
       id="path4" />
  </g>
</svg>
