<svg
   width="5.8209138mm"
   height="5.8208294mm"
   viewBox="0 0 5.8209138 5.8208294"
   version="1.1"
   id="svg1"
   xml:space="preserve"
   xmlns="http://www.w3.org/2000/svg"
   xmlns:svg="http://www.w3.org/2000/svg"><defs
     id="defs1" /><path
     fill-rule="evenodd"
     clip-rule="evenodd"
     d="m 1.7105729,0.01746032 c 0.31035,-0.01429 0.40931,-0.0174599993738 1.19988,-0.0174599993738 0.79058,0 0.88953,0.003399999374 1.19962,0.0174599993738 0.31009,0.01402 0.52176,0.0635 0.70697,0.135202 0.19394,0.07329 0.36989,0.187855 0.51541,0.336021 0.14816,0.145256 0.26246,0.32094 0.33549,0.51514398 0.072,0.185208 0.12118,0.396875 0.13547,0.706437 0.0143,0.310886 0.0175,0.40984 0.0175,1.20015 0,0.790576 -0.003,0.88953 -0.0175,1.199886 -0.014,0.309562 -0.0635,0.521229 -0.13547,0.706437 -0.073,0.194231 -0.18751,0.370205 -0.33549,0.515673 -0.14552,0.148167 -0.32147,0.262467 -0.51541,0.335492 -0.18521,0.07197 -0.39688,0.121179 -0.70644,0.135467 -0.31062,0.01429 -0.40957,0.01746 -1.20015,0.01746 -0.79057,0 -0.88953,-0.0034 -1.19988,-0.01746 -0.30957,-0.01402 -0.52123,-0.0635 -0.70644,-0.135467 -0.19423008,-0.07303 -0.37020008,-0.18751 -0.51567008,-0.335492 -0.14807,-0.145335 -0.26265,-0.32123 -0.33576,-0.515408 -0.0717,-0.185208 -0.12091,-0.396875 -0.1352,-0.706437 -0.0143,-0.310886 -0.017499993612,-0.40984 -0.017499993612,-1.200151 0,-0.790575 0.00299999361,-0.889529 0.017499993612,-1.19962 0.014,-0.310092 0.0635,-0.521759 0.1352,-0.706967 0.0732,-0.19418298 0.18789,-0.37006998 0.33602,-0.51540798 0.14527,-0.148035 0.32106,-0.262614 0.51514008,-0.335757 0.18521,-0.0717 0.39688,-0.120914 0.70644,-0.135202 z m 2.37595,0.523875 c -0.30691,-0.01402 -0.39899,-0.01693 -1.17607,-0.01693 -0.77708,0 -0.86915,0.0029 -1.17607,0.01693 -0.2839,0.01297 -0.43789,0.06032 -0.54054,0.100277 -0.13574,0.05292 -0.23284008,0.115623 -0.33470008,0.217488 -0.0966,0.09394 -0.17088,0.20830098 -0.21749,0.33469798 -0.04,0.102658 -0.0873,0.256646 -0.10028,0.540544 -0.014,0.306916 -0.0169,0.398991 -0.0169,1.176072 0,0.777082 0.003,0.869157 0.0169,1.176073 0.013,0.283898 0.0603,0.437886 0.10028,0.540544 0.0466,0.126206 0.12091,0.240771 0.21749,0.334698 0.0939,0.09657 0.20849008,0.170921 0.33470008,0.217488 0.10265,0.03995 0.25664,0.08731 0.54054,0.100277 0.30692,0.01402 0.39873,0.01693 1.17607,0.01693 0.77735,0 0.86916,-0.0029 1.17607,-0.01693 0.2839,-0.01297 0.43789,-0.06033 0.54055,-0.100277 0.13573,-0.05292 0.23283,-0.115623 0.3347,-0.217488 0.0966,-0.09393 0.17092,-0.208492 0.21748,-0.334698 0.04,-0.102658 0.0873,-0.256646 0.10028,-0.540544 0.014,-0.306916 0.0169,-0.398991 0.0169,-1.176073 0,-0.777081 -0.003,-0.869156 -0.0169,-1.176072 -0.013,-0.283898 -0.0603,-0.437886 -0.10028,-0.540544 -0.0529,-0.135731 -0.11562,-0.23283398 -0.21748,-0.33469798 -0.094,-0.09656 -0.20831,-0.170865 -0.3347,-0.217488 -0.10266,-0.03995 -0.25665,-0.08731 -0.54055,-0.100277 z m -1.54781,3.26628198 c 0.20762,0.08641 0.43879,0.09808 0.65403,0.03299 0.21526,-0.06509 0.40124,-0.202883 0.52617,-0.389864 0.12494,-0.186954 0.18111,-0.411506 0.15886,-0.635291 -0.0222,-0.223774 -0.12145,-0.432893 -0.28072,-0.591635 -0.10155,-0.101473 -0.22432,-0.179173 -0.35949,-0.227502 -0.13515,-0.04833 -0.27938,-0.06609 -0.42223,-0.052 -0.14284,0.01409 -0.28081,0.05968 -0.40394,0.133485 -0.12312,0.07381 -0.22835,0.173993 -0.3081,0.293349 -0.0798,0.119356 -0.13206,0.25491 -0.15314,0.396915 -0.0211,0.141975 -0.0104,0.286887 0.0312,0.424259 0.0416,0.137372 0.11322,0.263816 0.2096,0.370205 0.0964,0.106389 0.21513,0.190103 0.34773,0.245084 z m -0.68606,-1.955007 c 0.13891,-0.138911 0.30382,-0.249105 0.48532,-0.324284 0.1815,-0.07518 0.37603,-0.113874 0.57248,-0.113874 0.19646,0 0.39098,0.03869 0.57248,0.113874 0.18151,0.07518 0.34642,0.185373 0.48533,0.324284 0.1389,0.138912 0.2491,0.303827 0.32427,0.485326 0.0752,0.181498 0.11388,0.376025 0.11388,0.572478 0,0.196454 -0.0387,0.390975 -0.11388,0.572479 -0.0752,0.181505 -0.18537,0.346419 -0.32427,0.485326 -0.28054,0.280537 -0.66107,0.43815 -1.05781,0.43815 -0.39675,0 -0.77725,-0.157613 -1.0578,-0.43815 -0.28055,-0.280538 -0.43816,-0.661062 -0.43816,-1.057805 0,-0.396753 0.15761,-0.777255 0.43816,-1.057804 z m 2.88554,-0.215371 c 0.0344,-0.03247 0.062,-0.07152 0.0811,-0.114837 0.0191,-0.04331 0.0292,-0.09001 0.0299,-0.137329 6.9e-4,-0.04732 -0.008,-0.09429 -0.0259,-0.138144 -0.0178,-0.04385 -0.0442,-0.08369 -0.0777,-0.11715 -0.0335,-0.03346 -0.0733,-0.05987 -0.11716,-0.07766 -0.0438,-0.01779 -0.0908,-0.0266 -0.13813,-0.02591 -0.0473,6.91e-4 -0.094,0.01087 -0.13735,0.02993 -0.0433,0.01906 -0.0824,0.04662 -0.11483,0.08104 -0.0632,0.06695 -0.0977,0.155871 -0.0964,0.247896 10e-4,0.09202 0.0385,0.179904 0.10359,0.244981 0.0651,0.06508 0.15295,0.102232 0.24498,0.103573 0.092,0.0013 0.18094,-0.03323 0.24788,-0.09639 z"
     fill="#f0f0f0"
     id="path1-5"
     style="stroke-width:0.264583" /></svg>