<svg
   width="5.8208413mm"
   height="5.8208394mm"
   viewBox="0 0 5.8208413 5.8208394"
   version="1.1"
   id="svg1"
   xml:space="preserve"
   xmlns="http://www.w3.org/2000/svg"
   xmlns:svg="http://www.w3.org/2000/svg"><defs
     id="defs1" /><path
     fill-rule="evenodd"
     clip-rule="evenodd"
     d="m 9.4149473e-6,0.48630338 c 0,-0.128976 0.051200005053,-0.252669 0.1424300050527,-0.343868 0.0912,-0.0912 0.2149,-0.14243599501243 0.34387,-0.14243599501243 H 5.3339994 C 5.3978994,-1.0461501e-4 5.4612394,0.01239938 5.5202894,0.03679938 c 0.0591,0.02439 0.11277,0.0602 0.15798,0.105375 0.0453,0.04517 0.0811,0.09882 0.10557,0.157869 0.0245,0.05905 0.037,0.122349 0.037,0.186264 V 5.3340034 c 8e-5,0.06392 -0.0125,0.127238 -0.0369,0.18632 -0.0244,0.05908 -0.0603,0.112765 -0.10546,0.157982 -0.0452,0.04522 -0.0988,0.0811 -0.15793,0.105543 -0.0591,0.02445 -0.12237,0.03701 -0.1863,0.03699 H 0.48629942 c -0.0639,0 -0.12714,-0.01259 -0.18616,-0.03704 -0.059,-0.02445 -0.11264,-0.0603 -0.1578,-0.10549 -0.0452,-0.04519 -0.081,-0.09882 -0.1054,-0.15785 -0.0244,-0.05903 -0.03700000505,-0.12229 -0.03690000505,-0.186187 z M 2.3039894,2.2193244 h 0.78819 v 0.395817 c 0.11377,-0.227542 0.40482,-0.432329 0.84217,-0.432329 0.83847,0 1.03717,0.453231 1.03717,1.284816 v 1.540404 h -0.84852 v -1.350962 c 0,-0.473604 -0.11377,-0.740833 -0.4027,-0.740833 -0.40084,0 -0.56753,0.288131 -0.56753,0.740833 v 1.350962 h -0.84878 z M 0.84877942,4.9717854 H 1.6975694 V 2.1828124 H 0.84877942 v 2.788708 z M 1.8190094,1.2731744 c 0.002,0.07267 -0.0113,0.144936 -0.038,0.212545 -0.0267,0.06761 -0.0666,0.129201 -0.11748,0.181163 -0.0508,0.05196 -0.11153,0.09325 -0.17853,0.121438 -0.067,0.02819 -0.13896,0.04271 -0.21165,0.04271 -0.0727,0 -0.14465,-0.01452 -0.21166,-0.04271 -0.067,-0.02819 -0.12769998,-0.06947 -0.17852998,-0.121438 -0.0508,-0.05196 -0.0908,-0.113557 -0.11748,-0.181163 -0.0267,-0.06761 -0.0396,-0.139872 -0.038,-0.212545 0.003,-0.142647 0.062,-0.27839702 0.16402,-0.37817202 0.10199,-0.09978 0.23899998,-0.155646 0.38168998,-0.155646 0.14268,0 0.27969,0.05587 0.38169,0.155646 0.102,0.09977 0.16087,0.23552502 0.16401,0.37817202 z"
     fill="var(--primary-color) dark:var(--primary-color-dark)"
     id="path1"
     style="stroke-width:0.3" /></svg>
