<?xml version="1.0" encoding="UTF-8" standalone="no"?>
<!-- Created with Inkscape (http://www.inkscape.org/) -->

<svg
   width="210.16397mm"
   height="56.660927mm"
   viewBox="0 0 210.16397 56.660927"
   version="1.1"
   id="svg1"
   xmlns="http://www.w3.org/2000/svg"
   xmlns:svg="http://www.w3.org/2000/svg">
  <defs
     id="defs1" />
  <g
     id="layer1"
     transform="translate(0.22846588,-0.35008982)">
    <path
       style="display:inline;fill:#535a49;fill-opacity:1;stroke-width:1.06069"
       d="m 203.6431,56.995994 c -0.17304,-0.03715 -1.28507,-0.235824 -2.47116,-0.441433 -2.30963,-0.400373 -4.44384,-1.163821 -6.96734,-2.492357 -3.98415,-2.097515 -5.37979,-3.523994 -8.38128,-8.566443 l -1.12562,-1.890997 -1.06696,0.0045 c -0.58682,0.0022 -1.68045,0.106115 -2.43028,0.230292 -4.15892,0.688445 -13.77291,0.758989 -16.56982,0.121582 -0.98055,-0.223461 -1.94225,-0.498505 -2.13711,-0.611205 -0.19486,-0.112701 -0.94994,-0.346574 -1.67796,-0.519727 -2.0212,-0.480719 -4.5628,-1.270856 -5.17726,-1.609513 -0.7409,-0.408335 -1.07539,-0.23344 -1.07539,0.562285 0,0.363793 -0.2422,1.464022 -0.53821,2.444931 -0.34041,1.127996 -0.49861,2.062832 -0.43044,2.543541 0.13194,0.930335 -0.10784,0.871036 -0.75629,-0.187026 -0.27041,-0.441234 -1.10195,-1.233498 -1.84785,-1.760588 -0.74592,-0.527091 -1.71217,-1.231603 -2.14726,-1.565592 -0.96251,-0.738875 -2.99107,-3.472112 -3.44673,-4.644049 -0.43805,-1.126642 -0.43472,-3.200639 0.007,-4.167588 0.33076,-0.724593 0.32745,-0.799938 -0.066,-1.495633 -0.54845,-0.969783 -3.03226,-3.366553 -4.11314,-3.969005 -0.4727,-0.263467 -1.77619,-1.103829 -2.89665,-1.86747 -1.12045,-0.763642 -2.15162,-1.388439 -2.29148,-1.388439 -0.18011,0 -0.2575,0.618525 -0.26529,2.120217 -0.008,1.50314 -0.14131,2.568847 -0.4587,3.661656 -0.4123,1.41949 -0.4241,1.62718 -0.14924,2.625255 0.16416,0.596091 0.26608,1.119211 0.22648,1.162477 -0.0396,0.04324 -0.43726,-0.12931 -0.88371,-0.383507 -0.44646,-0.254198 -1.7084,-0.660283 -2.80431,-0.902394 -3.23534,-0.714772 -5.38509,-2.021511 -6.23631,-3.790776 -0.50588,-1.05147 -0.8145,-3.273771 -0.67172,-4.836748 0.0691,-0.756402 0.053,-1.48125 -0.0357,-1.610774 -0.10413,-0.151922 -2.15724,-0.227753 -5.78513,-0.213672 l -5.62373,0.02182 -1.46158,0.754384 c -2.26849,1.170856 -3.43036,2.073766 -5.46618,4.247862 -1.03483,1.105111 -2.29316,2.319981 -2.7963,2.699709 -0.98244,0.741465 -3.857952,2.330337 -5.966915,3.29702 -0.714076,0.327313 -1.857074,0.951935 -2.539999,1.388036 -1.558264,0.995091 -5.177951,2.509709 -7.012184,2.934166 -1.165991,0.269833 -3.258465,0.915555 -7.057474,2.177884 -0.346079,0.114996 -1.714661,0.621107 -3.041294,1.1247 -1.326633,0.503583 -3.025563,1.042383 -3.775399,1.19733 -0.876622,0.181137 -1.558829,0.476804 -1.910927,0.828169 -0.496108,0.495077 -0.561172,0.761971 -0.692069,2.838929 -0.233248,3.70094 -1.118087,6.048894 -2.850358,7.563525 -0.447036,0.39087 -1.503763,0.882035 -2.70231,1.256008 -1.911371,0.596391 -2.020388,0.605294 -3.775398,0.308296 -2.287539,-0.387112 -3.139954,-0.361066 -3.994876,0.122071 -0.784286,0.443207 -1.069886,0.310791 -0.597105,-0.27684 0.537144,-0.667644 1.143971,-2.153013 1.496466,-3.663008 0.639292,-2.738559 2.484676,-6.031673 3.820576,-6.817873 1.07999,-0.6356 0.93349,-1.036782 -0.382376,-1.047129 -1.286198,-0.01 -1.969916,-0.101792 -5.086302,-0.682424 -4.38665,-0.817236 -6.316237,-1.447845 -9.102039,-2.974661 l -1.341496,-0.735239 -3.956685,0.283449 c -3.583232,0.256693 -4.169301,0.244784 -6.209301,-0.126272 -2.272233,-0.413292 -6.548444,-1.64067 -7.69953,-2.209962 -0.342537,-0.169406 -1.234767,-0.746382 -1.982736,-1.282165 -0.747968,-0.535783 -1.505945,-0.973003 -1.684395,-0.971595 -0.178448,0.0011 -1.221109,0.315648 -2.317023,0.698315 -1.095914,0.382666 -2.700459,0.900785 -3.565654,1.151368 -0.865196,0.250583 -2.045008,0.649858 -2.621806,0.887268 -1.33125,0.547947 -2.202315,0.757504 -2.202315,0.52984 0,-0.210964 2.130764,-1.027313 4.614375,-1.767884 3.035485,-0.905122 5.243731,-1.764747 5.240964,-2.04019 -0.0014,-0.144935 -0.496976,-0.733386 -1.101159,-1.307667 -1.001047,-0.951515 -1.143154,-1.019307 -1.601685,-0.764091 -0.276746,0.154037 -0.773936,0.755464 -1.104865,1.336498 -1.725303,3.029237 -4.184168,2.597617 -7.960758,-1.397429 -0.994539,-1.052066 -1.914793,-1.912848 -2.045007,-1.912848 -0.130214,0 -0.236752,-0.103141 -0.236752,-0.229213 0,-0.126068 0.188498,-0.229213 0.418884,-0.229213 0.230386,0 0.7731,-0.339499 1.20603,-0.75444 1.527786,-1.46431 3.224518,-1.851079 4.793424,-1.09266 0.556743,0.269133 1.183113,0.658303 1.391931,0.864823 0.262503,0.259612 0.446894,0.302031 0.597496,0.13745 0.301738,-0.329746 -2.871096,-3.512285 -4.632366,-4.646533 -3.155756,-2.031866 -5.5613887,-2.585431 -7.7108283,-1.774106 -0.4922926,0.185819 -0.9454508,0.245846 -1.008907,0.133642 -0.1921592,-0.33978 0.9641041,-0.684264 2.7388985,-0.815996 1.4597732,-0.108354 1.8641038,-0.04855 3.0765518,0.454973 3.165257,1.31453 4.094736,2.052621 9.724586,7.722208 1.689977,1.701904 3.388889,3.335929 3.775361,3.631165 l 0.702675,0.536792 1.744107,-0.729417 c 0.959259,-0.401172 1.994633,-0.874806 2.30083,-1.052519 0.306198,-0.177708 0.669473,-0.323106 0.80728,-0.323106 0.137805,0 0.547975,-0.142422 0.911487,-0.316493 0.363512,-0.174072 1.416012,-0.601203 2.338887,-0.949183 0.922876,-0.347979 1.772339,-0.726574 1.8877,-0.841323 0.332396,-0.330639 -2.575099,-3.164896 -3.246681,-3.164896 -0.755896,0 -2.310846,-0.909819 -2.793506,-1.634512 -0.282739,-0.424519 -0.442524,-1.177558 -0.539722,-2.543597 -0.119203,-1.675325 -0.223653,-2.062692 -0.764227,-2.834265 -1.454267,-2.075706 -3.4577,-5.624367 -3.4577,-6.124591 0,-0.183219 -0.172861,-0.382523 -0.384134,-0.442901 -0.414166,-0.118359 -3.386563,0.316779 -4.754604,0.696042 -0.461438,0.127925 -1.358095,0.300683 -1.992572,0.383906 -1.471826,0.193059 -3.769686,1.044183 -6.255385,2.316987 -2.1782609,1.115381 -2.5672351,0.86088 -0.442959,-0.289824 2.768043,-1.499425 5.195652,-2.226629 10.825223,-3.242758 1.173869,-0.211881 2.204789,-0.462264 2.290937,-0.556406 0.147198,-0.160863 -1.02435,-2.196353 -2.60357,-4.5235325 C 20.732369,7.679949 18.760565,5.6547541 17.80958,5.0761004 17.405823,4.8304219 16.570579,4.3179118 15.953483,3.9371887 14.592029,3.0972265 14.396862,3.2106093 13.904712,5.1274278 13.682354,5.9934617 13.281561,6.8235619 12.798651,7.4182446 12.092279,8.2881094 11.967552,8.3502512 10.945353,8.341599 9.7936014,8.3318491 8.2524601,7.7231121 7.7732109,7.0886326 7.6174201,6.8823794 7.1694788,6.6479255 6.7777859,6.5676235 L 6.065617,6.4216181 6.5991426,5.7287059 C 6.8925816,5.3476045 7.3113662,4.6530037 7.5297746,4.1851503 7.7481832,3.717297 8.27117,3.0041586 8.6919674,2.6003998 9.112766,2.1966407 9.4093409,1.730413 9.3510255,1.5643379 9.2927031,1.3982629 8.788807,1.2025446 8.2312425,1.1294088 7.6736784,1.0562709 6.8105804,0.92475127 6.3132469,0.83713873 5.3722182,0.67136195 5.0677186,0.7442304 1.8117718,1.9143733 c -2.07271135,0.7449038 -2.04020763,0.737701 -2.04020763,0.4520749 0,-0.3847028 4.85730453,-1.95436671 5.97771473,-1.93173015 C 7.3585842,0.46722932 10.826436,1.187 12.4611,1.8277865 c 1.517608,0.5949022 4.148798,1.9589427 5.728364,2.9696546 1.745011,1.1165734 4.979895,5.1609526 6.319657,7.9010849 0.324128,0.662916 0.496469,0.774759 1.294256,0.839918 0.506187,0.04134 2.24173,-0.107954 3.856762,-0.331763 2.112532,-0.292757 4.466498,-0.410314 8.389774,-0.418987 5.42333,-0.01199 7.224045,0.163321 9.228752,0.898477 0.461438,0.169217 1.924405,0.582436 3.25104,0.918266 1.326632,0.335829 2.834915,0.814241 3.351736,1.063135 0.848236,0.408498 0.963199,0.417382 1.181393,0.09129 0.132943,-0.198687 0.247112,-0.744901 0.253708,-1.21381 0.0066,-0.468907 0.172439,-1.265141 0.36854,-1.76941 0.196102,-0.504268 0.416142,-1.484153 0.48898,-2.177523 l 0.132429,-1.2606698 0.602192,0.9773438 c 0.363589,0.590097 1.109794,1.311894 1.883292,1.821691 2.894865,1.90795 4.938277,4.14657 5.71071,6.25626 0.388741,1.061738 0.313203,3.655649 -0.123192,4.230279 -0.138084,0.181825 -0.188893,0.544648 -0.112909,0.806274 0.232729,0.801328 3.078442,3.680971 4.312587,4.364009 0.640775,0.354637 2.087492,1.273484 3.214926,2.041883 1.127434,0.7684 2.129565,1.343271 2.226955,1.277494 0.09738,-0.06578 0.125536,-0.866283 0.06254,-1.778901 -0.08859,-1.283425 -0.0136,-2.052045 0.330964,-3.393024 0.503826,-1.960744 0.554807,-2.910595 0.201674,-3.757574 -0.134098,-0.321632 -0.20145,-0.631084 -0.149671,-0.687668 0.05177,-0.05658 0.646721,0.201715 1.322095,0.574 0.779073,0.429449 1.550167,0.676884 2.109407,0.676884 1.480252,0 4.199573,1.189547 5.542694,2.424611 1.299544,1.194993 2.039086,3.907883 1.727266,6.336194 -0.09261,0.721265 -0.09492,1.391712 -0.0051,1.489884 0.08981,0.09817 2.645634,0.164065 5.679611,0.146429 l 5.516319,-0.03206 1.816337,-0.943159 c 1.898982,-0.986074 3.095102,-1.951388 6.766722,-5.460968 2.2299,-2.131484 3.01969,-2.637392 7.14777,-4.578583 0.92288,-0.433973 2.33865,-1.182411 3.14616,-1.663195 0.80752,-0.480783 1.84575,-1.002884 2.30719,-1.160224 0.46144,-0.157339 0.93336,-0.360878 1.04873,-0.452308 0.24767,-0.196297 0.24481,-0.195412 4.82411,-1.48695 1.96112,-0.553105 4.5567,-1.383603 5.76797,-1.845551 2.74683,-1.047567 4.48492,-1.606985 6.50207,-2.092735 1.00913,-0.243008 1.76866,-0.575235 2.11858,-0.926704 0.49885,-0.501049 0.55688,-0.751298 0.67871,-2.9272675 0.1523,-2.7200758 0.65283,-4.4736291 1.74734,-6.1215305 0.79038,-1.1900018 1.76029,-1.7967629 3.98209,-2.49111327 1.71059,-0.53459453 2.86608,-0.55957193 4.64804,-0.10047062 1.35987,0.35035129 2.00816,0.29027749 3.0475,-0.28239508 0.81724,-0.45029627 0.9076,-0.23696206 0.28137,0.66435007 -0.57153,0.822619 -1.03194,2.0026792 -1.41212,3.6193727 -0.56672,2.4098788 -2.55792,5.7820892 -3.87022,6.5544032 -1.1684,0.687635 -0.94867,1.015256 0.68172,1.016378 1.30906,9.01e-4 5.66154,0.742867 8.12759,1.385503 1.98198,0.516494 4.19728,1.419088 5.71701,2.329318 l 1.52212,0.911667 2.58308,-0.277566 c 2.97627,-0.319817 6.47489,-0.19645 8.74017,0.308193 2.37955,0.530099 5.83397,1.698077 6.73304,2.276522 3.70386,2.382954 3.44879,2.26965 4.3185,1.918372 1.38524,-0.5595 3.46318,-1.246478 5.29371,-1.750125 0.97242,-0.267545 2.01065,-0.620459 2.30719,-0.784252 0.68497,-0.378336 2.11276,-0.667028 2.11065,-0.426763 -8.7e-4,0.100258 -1.01551,0.509966 -2.25474,0.910454 -6.47711,2.093221 -7.60165,2.488611 -7.60165,2.672783 0,0.110427 0.49125,0.704797 1.09167,1.32082 1.00231,1.028367 1.13537,1.098409 1.62552,0.855734 0.29361,-0.14537 0.81701,-0.730779 1.16309,-1.300911 0.78147,-1.287396 1.45984,-1.841392 2.47529,-2.021474 1.24949,-0.221583 3.2474,0.996231 5.18037,3.157673 0.8652,0.967453 1.78546,1.876675 2.04501,2.020492 0.61252,0.339379 0.6043,0.70378 -0.0158,0.70378 -0.26829,0 -0.70499,0.252657 -0.97046,0.56146 -1.37254,1.596615 -3.63199,1.926844 -5.56818,0.813816 -1.37964,-0.793101 -1.36334,-0.788656 -1.36334,-0.37143 0,0.173914 0.40115,0.676643 0.89142,1.117175 0.49028,0.440531 1.31614,1.232888 1.83526,1.760792 0.51912,0.527904 1.227,1.120644 1.57309,1.317201 0.34608,0.196556 0.78215,0.503522 0.96905,0.682145 0.1869,0.178625 1.06597,0.630343 1.9535,1.003825 1.82378,0.767461 3.42181,0.881437 5.01439,0.357651 0.53746,-0.176757 0.9772,-0.231965 0.9772,-0.122669 0,0.386037 -0.76068,0.634258 -2.41585,0.788351 -1.85467,0.172666 -2.70003,-0.04646 -5.09416,-1.320463 -1.97692,-1.051998 -2.77804,-1.746893 -7.06633,-6.129429 -2.15875,-2.206173 -4.26137,-4.23697 -4.67249,-4.512883 -0.65632,-0.44046 -0.81358,-0.46522 -1.289,-0.202963 -0.29783,0.164283 -1.0606,0.475357 -1.69508,0.691277 -0.63448,0.21592 -1.43676,0.532791 -1.78283,0.704159 -0.34607,0.171368 -1.76185,0.74578 -3.14617,1.27647 -1.38431,0.53069 -2.61132,1.058248 -2.72668,1.17235 -0.30623,0.302899 2.57113,3.163719 3.18201,3.163719 0.86955,0 2.13549,0.714565 2.70076,1.524455 0.46232,0.662399 0.57563,1.112481 0.67299,2.673101 0.11257,1.804398 0.15912,1.942723 1.20992,3.595679 1.32662,2.086816 2.05689,3.424189 2.67112,4.89166 l 0.46445,1.109643 1.36606,-0.155356 c 0.75135,-0.08549 2.02678,-0.305148 2.83429,-0.488238 0.80751,-0.183088 2.09974,-0.430777 2.8716,-0.550419 0.77185,-0.119642 1.7157,-0.361122 2.09744,-0.536603 0.38174,-0.175493 1.0716,-0.446324 1.53303,-0.601847 0.46144,-0.155524 1.63073,-0.683634 2.59841,-1.173556 1.95,-0.987273 1.9111,-0.973336 1.9111,-0.685053 0,0.285588 -2.81745,1.738845 -4.77347,2.462185 -1.65426,0.611738 -4.48821,1.241095 -7.96574,1.768994 -1.06554,0.161755 -1.9955,0.357629 -2.06655,0.435279 -0.1082,0.118245 1.56584,3.010309 3.16495,5.467727 1.15501,1.774938 5.65149,5.061932 6.46047,4.722688 0.18026,-0.07562 0.48715,-0.758258 0.68197,-1.517015 0.41286,-1.608037 1.48428,-3.116579 2.34301,-3.298946 1.04429,-0.221766 2.59651,0.254241 3.59151,1.101404 0.51694,0.440125 1.17802,0.800226 1.46907,0.800226 h 0.52918 l -0.54053,0.630333 c -0.29729,0.346684 -0.73413,1.052683 -0.97074,1.568885 -0.23662,0.516211 -0.76611,1.260864 -1.17667,1.654795 -0.86595,0.830885 -0.93162,1.138417 -0.27453,1.285746 2.78131,0.623603 3.32991,0.669885 4.4072,0.371822 1.03982,-0.287695 3.60528,-1.165905 4.40206,-1.506924 0.20638,-0.08837 0.36706,-0.05278 0.36706,0.08117 0,0.131064 -0.21236,0.302797 -0.47194,0.381625 -0.25955,0.07883 -0.80227,0.281341 -1.20602,0.450015 -1.51637,0.633482 -4.05294,1.259556 -4.61438,1.138927 z M 68.119658,43.715192 c 3.526942,-0.406317 5.94647,-0.952002 8.418349,-1.898627 6.195973,-2.372803 8.777481,-3.305611 10.959144,-3.960027 3.209936,-0.962857 3.296586,-1.34529 0.314616,-1.388601 -2.5166,-0.0366 -3.344833,-0.101896 -5.191173,-0.409643 -0.749836,-0.124975 -1.976841,-0.288804 -2.726676,-0.364048 -1.674125,-0.168009 -3.017609,-0.671016 -3.985144,-1.492032 -0.951807,-0.80768 -2.972932,-1.030267 -6.255226,-0.688891 -2.56864,0.267149 -4.915549,0.924626 -7.767956,2.176165 -0.996886,0.437398 -2.756368,1.115731 -3.909962,1.50739 -1.153595,0.391669 -2.569368,0.910287 -3.146167,1.152477 -1.493207,0.627005 -2.917138,1.046729 -4.666812,1.375594 -0.902485,0.169638 -1.520647,0.398189 -1.520647,0.562251 0,0.390971 2.70441,1.664487 4.707152,2.216614 2.953899,0.814341 7.279561,1.508786 9.555466,1.534034 1.211274,0.01342 3.55804,-0.131761 5.215036,-0.322656 z m 109.095652,0.13114 c 4.84545,-0.413302 7.1313,-0.780744 7.1313,-1.146323 0,-0.190784 -0.33649,-0.967792 -0.74775,-1.726681 -0.41127,-0.758878 -0.81241,-1.502333 -0.89143,-1.652102 -0.77176,-1.463003 -1.8774,-3.029613 -2.10892,-2.988143 -0.45127,0.08083 -1.11836,2.180965 -0.95611,3.009921 l 0.13877,0.708959 -0.49639,-0.489867 c -0.27301,-0.269422 -0.91822,-0.721422 -1.4338,-1.00446 -1.45804,-0.800393 -2.1096,-1.408095 -2.57514,-2.401821 -0.56865,-1.213828 -0.55266,-3.616933 0.0364,-5.467489 0.49457,-1.553746 0.46512,-1.650309 -0.97148,-3.184861 -0.93859,-1.002591 -1.06724,-1.07048 -1.64128,-0.866178 -0.34259,0.121921 -1.04761,0.371531 -1.56672,0.554691 -0.51913,0.183157 -1.46297,0.554385 -2.09745,0.82495 -3.9035,1.664598 -7.24224,2.933271 -8.72663,3.315985 -0.79528,0.205048 -2.04442,0.526525 -2.77586,0.714393 -0.99848,0.256452 -2.12231,0.313195 -4.50952,0.227688 -1.74878,-0.06264 -3.35822,-0.143498 -3.57651,-0.179685 -0.85693,-0.14205 -0.48762,0.470618 0.91502,1.517953 1.72865,1.290769 3.14735,3.226441 3.80135,5.18663 0.52264,1.5664 0.54278,1.588122 2.07774,2.240265 1.12763,0.479088 1.73299,0.662466 4.30286,1.303443 0.69386,0.173054 1.54332,0.431886 1.88769,0.575169 0.8395,0.349289 2.44769,0.718439 3.98206,0.914068 1.78649,0.227764 8.1959,0.235781 10.80183,0.01352 z M 45.570041,39.803897 c 0.597562,-0.250594 0.382103,-0.659029 -0.810805,-1.537005 -1.044543,-0.768781 -1.290066,-0.850878 -2.544612,-0.850878 -1.047415,0 -1.564772,0.119043 -2.105978,0.484567 -0.804855,0.5436 -1.049548,0.467812 -0.712388,-0.220656 0.124706,-0.254642 0.226738,-1.17767 0.226738,-2.051178 v -1.58819 l -1.00928,-1.031694 c -1.640188,-1.676609 -1.553663,-1.663846 -4.370626,-0.644727 -6.330868,2.290377 -7.624245,2.834455 -7.624245,3.207274 0,0.392313 2.635467,2.119193 3.879105,2.541788 5.395083,1.833227 6.645457,2.052442 11.03451,1.934618 2.030761,-0.05456 3.847672,-0.164283 4.037581,-0.243919 z m 4.33043,-0.429103 c 1.504895,-0.274612 9.898085,-3.106223 11.221324,-3.785732 2.686649,-1.379641 6.170515,-2.346854 9.019008,-2.503917 1.753904,-0.09671 2.516933,-0.222546 2.516933,-0.41509 0,-0.382503 -3.462312,-2.813887 -5.948677,-4.177415 -2.826702,-1.550171 -5.092838,-2.223787 -8.651746,-2.571756 -2.6423,-0.258348 -3.185467,-0.24591 -5.187045,0.118777 -1.229631,0.224039 -2.717268,0.557478 -3.305859,0.740979 -1.48764,0.463788 -1.623651,0.890205 -0.979646,3.071351 0.380445,1.288511 0.482795,2.044816 0.408628,3.019517 -0.153425,2.016334 -0.595739,2.637574 -2.606139,3.660342 -0.951714,0.484179 -1.728403,0.958544 -1.725975,1.054157 0.0076,0.299261 2.595898,2.091851 3.036879,2.103271 0.230718,0.0055 1.22176,-0.135542 2.202315,-0.314484 z m 41.426795,-4.602657 c 1.842474,-0.447954 2.092041,-0.92009 0.574517,-1.086857 -1.401448,-0.154015 -6.66152,-0.03315 -6.946961,0.15967 -0.379345,0.256216 -0.28378,1.234098 0.130269,1.332983 0.851143,0.203258 4.790387,-0.05278 6.242175,-0.405796 z M 40.026764,31.72945 c 0.148823,-0.669304 0.235419,-1.255346 0.19244,-1.302316 -0.07679,-0.08392 -2.500015,0.578519 -2.681666,0.733097 -0.05108,0.04348 0.373645,0.531278 0.94385,1.08401 0.570205,0.552732 1.090298,0.936828 1.155762,0.853545 0.06547,-0.08328 0.240792,-0.699033 0.389614,-1.368336 z m -17.940223,0.776211 c -0.121959,-0.347321 -0.703906,-0.675246 -0.87211,-0.491429 -0.223316,0.244045 0.174515,0.817526 0.567128,0.817526 0.276574,0 0.380478,-0.111097 0.304982,-0.326097 z m 124.633599,-0.07503 c 0.41814,-0.601956 0.36148,-0.736601 -0.46973,-1.116137 -1.09519,-0.500072 -1.40016,-0.08122 -0.60295,0.828109 0.70815,0.807759 0.71111,0.808555 1.07268,0.288028 z m 10.77921,-1.551106 c 3.15529,-0.601277 3.64065,-0.745284 3.92026,-1.163172 0.36567,-0.546505 0.35052,-0.8002 -0.16867,-2.822206 -0.48701,-1.89672 -0.44744,-3.388717 0.12181,-4.591702 0.39121,-0.826719 0.94494,-1.25205 2.56922,-1.973488 0.6626,-0.294296 1.23564,-0.636467 1.27345,-0.76038 0.0378,-0.123914 -0.49787,-0.645773 -1.19037,-1.15969 -1.04112,-0.772636 -1.43355,-0.93436 -2.26688,-0.934205 -1.30559,2.42e-4 -3.69449,0.547427 -5.93679,1.359842 -0.98055,0.355268 -2.91544,1.033632 -4.29975,1.507475 -1.38432,0.473843 -2.61133,0.934011 -2.72668,1.022595 -0.11536,0.08858 -0.77606,0.374142 -1.46821,0.634573 -3.568,1.342492 -5.69218,1.820516 -8.37741,1.885246 -1.97381,0.04758 -2.183,0.258193 -1.00194,1.008741 0.22501,0.142984 1.05882,0.738799 1.85293,1.324033 2.10833,1.55379 4.88671,3.088834 6.8528,3.786167 3.16438,1.122341 7.65201,1.484858 10.84623,0.876171 z M 39.203507,29.726712 c 2.428823,-0.941328 4.596013,-1.833412 5.977715,-2.460614 1.24056,-0.563133 3.183539,-1.259472 4.82412,-1.728905 3.074069,-0.879605 3.590735,-0.941389 7.183746,-0.859034 3.820433,0.08756 4.266305,-0.0392 3.004025,-0.854054 -2.199766,-1.420048 -4.023851,-3.755413 -4.709668,-6.029761 -0.344825,-1.143534 -0.384737,-1.183187 -1.761866,-1.750458 -0.774977,-0.31923 -2.258513,-0.804257 -3.296748,-1.07784 -1.038233,-0.273582 -2.501201,-0.698345 -3.251037,-0.943918 -1.622744,-0.531453 -4.795279,-0.94756 -7.550798,-0.990353 -2.411383,-0.03745 -9.273067,0.432471 -11.134644,0.762557 -0.739831,0.131182 -1.702052,0.239292 -2.13827,0.240244 -0.487792,0.001 -0.83681,0.12614 -0.9066,0.324892 -0.06241,0.177737 0.270898,0.988264 0.740687,1.801169 0.46979,0.812904 0.854164,1.555242 0.854164,1.649637 0,0.09439 0.353944,0.673651 0.786542,1.287232 0.432598,0.613582 0.943184,1.350369 1.134635,1.637304 l 0.348096,0.521701 0.438446,-1.107764 c 0.241145,-0.60927 0.438447,-1.52248 0.438447,-2.029356 v -0.921594 l 0.741403,0.711383 c 0.407773,0.391262 0.863516,0.711383 1.012763,0.711383 0.625681,0 2.166824,1.397604 2.60966,2.366601 0.597634,1.307717 0.616272,3.470645 0.04596,5.333752 -0.227882,0.744454 -0.416652,1.43857 -0.419489,1.54248 -0.0028,0.103908 0.518774,0.789196 1.159135,1.522863 1.307916,1.498489 0.960477,1.46792 3.869573,0.340453 z M 171.80201,26.194648 c 0.54026,-0.01533 0.69832,-0.498428 0.25157,-0.768928 -0.21807,-0.132042 -0.66035,-0.546977 -0.98284,-0.922078 -0.3225,-0.375102 -0.65793,-0.588708 -0.74543,-0.474684 -0.23549,0.306901 -0.68408,2.387453 -0.56149,2.604213 0.0581,0.102757 0.46067,0.04839 0.89459,-0.120817 0.43391,-0.169205 0.94853,-0.312174 1.1436,-0.317706 z M 64.655824,25.55287 c 0.0539,-0.09531 -0.139252,-0.474718 -0.429231,-0.843128 -0.416193,-0.528767 -0.599876,-0.619848 -0.872165,-0.432477 -0.542105,0.373041 -0.538879,0.967271 0.0066,1.206245 0.608457,0.266591 1.166403,0.296478 1.294848,0.06936 z M 177.99774,23.987202 c 4.58578,-1.669772 5.30016,-1.992892 5.30016,-2.397336 0,-0.100942 -0.63711,-0.644679 -1.41577,-1.20829 -1.04076,-0.753298 -2.0825,-1.239156 -3.93271,-1.83416 -4.23328,-1.361369 -5.72815,-1.61741 -9.12388,-1.56273 -4.61999,0.07439 -5.56031,0.386323 -4.15129,1.377112 0.37978,0.267052 0.94999,0.675457 1.26714,0.907569 0.84014,0.614873 2.76141,0.639981 3.81369,0.04984 0.45357,-0.254374 0.85735,-0.42679 0.89728,-0.383146 0.04,0.04365 -0.0245,0.358235 -0.143,0.699094 -0.1186,0.340859 -0.21404,1.257689 -0.21208,2.0374 0.003,1.336024 0.0486,1.464768 0.78654,2.235708 0.76709,0.801419 1.9221,1.817899 2.06566,1.817899 0.0399,0 2.22158,-0.782532 4.84826,-1.738958 z m 10.7143,0.879411 c -0.0385,-0.220617 -0.2887,-0.435136 -0.55605,-0.476706 -0.43313,-0.06735 -0.46068,-0.02363 -0.25267,0.401122 0.28653,0.585087 0.90771,0.643143 0.80872,0.07559 z m -43.84402,-2.427542 c 1.41633,-0.458427 2.8321,-0.976098 3.14617,-1.150381 0.31405,-0.174282 1.79801,-0.754709 3.29769,-1.289835 1.49967,-0.535125 3.57614,-1.283975 4.61438,-1.664109 1.03823,-0.380137 2.64179,-0.808304 3.56345,-0.951486 2.22687,-0.345943 2.31504,-0.736349 0.37842,-1.675511 -1.77703,-0.861779 -4.83819,-1.737944 -8.20559,-2.348596 -4.68224,-0.849089 -10.75849,-0.527323 -15.87175,0.840484 -1.38376,0.370161 -2.11698,0.631628 -6.60695,2.356078 -1.67271,0.642434 -4.12671,1.475173 -5.45335,1.850532 -3.32729,0.941426 -3.77539,1.118606 -3.77539,1.492764 0,0.259456 0.46047,0.333417 2.25475,0.362151 1.24011,0.01986 2.38914,0.02833 2.55338,0.01883 0.16425,-0.0095 1.34405,0.169408 2.62181,0.397582 1.27774,0.228174 2.81834,0.481068 3.42354,0.561986 1.27243,0.170124 2.57558,0.748303 3.61158,1.602374 l 0.7268,0.599175 3.57295,-0.08427 c 3.38214,-0.07977 3.71049,-0.128784 6.14811,-0.917771 z m -19.71892,0.121416 c 0.74246,-1.032657 -0.3589,-1.338769 -3.67283,-1.020826 -3.71842,0.35675 -4.55155,0.552439 -4.40622,1.034944 0.12041,0.399755 2.28839,0.588453 5.29711,0.461049 1.98043,-0.08386 2.57342,-0.185145 2.78194,-0.475167 z"
       id="path1" />
  </g>
</svg>
